<svg xmlns="http://www.w3.org/2000/svg" viewBox="0 0 25.06 21.96"><defs><style>.cls-1{fill:#999;}</style></defs><title>Add picture icon&amp;apos;</title><g id="Layer_2" data-name="Layer 2"><g id="Layer_1-2" data-name="Layer 1"><path class="cls-1" d="M12.69,12.87a2.56,2.56,0,1,0-2.56-2.56,2.56,2.56,0,0,0,2.56,2.56Zm0-3.9a1.34,1.34,0,1,1-1.34,1.34A1.34,1.34,0,0,1,12.69,9Z"/><path class="cls-1" d="M22.89,1.91,6.27,0a2.3,2.3,0,0,0-1.8.52,2.37,2.37,0,0,0-.88,1.58l-.3,2.5h-1A2.44,2.44,0,0,0,0,7.14V19.59A2.31,2.31,0,0,0,2.25,22h16.8a2.5,2.5,0,0,0,2.56-2.37V19.1a3,3,0,0,0,1.15-.48A2.56,2.56,0,0,0,23.65,17l1.4-12.35A2.47,2.47,0,0,0,22.89,1.91ZM2.34,5.84H19.05a1.39,1.39,0,0,1,1.34,1.3v5.12l-6.63,3.86A1.55,1.55,0,0,1,12,16L8.61,13a2.68,2.68,0,0,0-3.37-.12l-4,2.92V7.14A1.22,1.22,0,0,1,2.34,5.84ZM19.05,20.75H2.34a1.09,1.09,0,0,1-1.12-1.07V17.34l4.72-3.47A1.44,1.44,0,0,1,7.82,14l3.32,2.92a2.83,2.83,0,0,0,3.26.28l6-3.47v5.9A1.28,1.28,0,0,1,19.05,20.75ZM23.83,4.47,22.4,16.82a1,1,0,0,1-.4.82c-.12.12-.39.19-.39.25V7.14a2.62,2.62,0,0,0-2.56-2.52H4.5l.28-2.38a1.42,1.42,0,0,1,.46-.79,1.38,1.38,0,0,1,.91-.24L22.73,3.13a1.21,1.21,0,0,1,1.1,1.32Z"/></g></g></svg>