<svg xmlns="http://www.w3.org/2000/svg" viewBox="0 0 21 21"><defs><style>.cls-1{fill:#999;}</style></defs><title>Add smiley icon</title><g id="Layer_2" data-name="Layer 2"><g id="Layer_1-2" data-name="Layer 1"><path class="cls-1" d="M10.5,0A10.5,10.5,0,1,0,21,10.5,10.51,10.51,0,0,0,10.5,0Zm0,19.86a9.35,9.35,0,0,1-6.6-2.72,9.59,9.59,0,0,1-1.7-2.3A9.36,9.36,0,0,1,16.85,3.63,9.45,9.45,0,0,1,19,6.46a9.37,9.37,0,0,1-8.45,13.4Z"/><path class="cls-1" d="M8.21,8.16A1.14,1.14,0,1,1,7.07,7,1.13,1.13,0,0,1,8.21,8.16Z"/><path class="cls-1" d="M15.23,8.16A1.14,1.14,0,1,1,14.09,7a1.13,1.13,0,0,1,1.14,1.14Z"/><path class="cls-1" d="M10.48,16.32a6.61,6.61,0,0,0,5.51-3l-1-.62a5.38,5.38,0,0,1-9.06,0l-1,.62a6.64,6.64,0,0,0,4.73,3c.25,0,.5,0,.74,0Z"/></g></g></svg>