<svg xmlns="http://www.w3.org/2000/svg" viewBox="0 0 15.84 20"><defs><style>.cls-1{fill:#999;}</style></defs><title>Add file icon</title><g id="Layer_2" data-name="Layer 2"><g id="Layer_1-2" data-name="Layer 1"><path class="cls-1" d="M15.67,4,11.84.17A.58.58,0,0,0,11.43,0H2.72A2.72,2.72,0,0,0,0,2.72V17.28A2.72,2.72,0,0,0,2.72,20h10.4a2.72,2.72,0,0,0,2.72-2.72V4.41A.58.58,0,0,0,15.67,4ZM12,2l1.82,1.83H12Zm.84,16.83H3A1.81,1.81,0,0,1,1.17,17V3A1.81,1.81,0,0,1,3,1.17h7.85V4.41a.59.59,0,0,0,.59.59h3.24V17A1.81,1.81,0,0,1,12.86,18.83Z"/><path class="cls-1" d="M10.06,5.59a.63.63,0,0,0-.63.63v7.1a1.51,1.51,0,0,1-1.51,1.5,1.52,1.52,0,0,1-1.51-1.5V6.69a.44.44,0,0,1,.88,0v6.4a.63.63,0,1,0,1.25,0V6.69a1.69,1.69,0,1,0-3.38,0v6.63a2.77,2.77,0,0,0,2.76,2.76,2.77,2.77,0,0,0,2.77-2.76V6.22a.63.63,0,0,0-.63-.63Z"/></g></g></svg>