<svg xmlns="http://www.w3.org/2000/svg" viewBox="0 0 18.39 18.72"><defs><style>.cls-1{fill:#ccc;}</style></defs><title>Ascending order</title><g id="Layer_2" data-name="Layer 2"><g id="Layer_1-2" data-name="Layer 1"><path class="cls-1" d="M12,2.67a.32.32,0,0,0,.24-.09.33.33,0,0,0,.1-.24v-2a.37.37,0,0,0-.1-.24A.32.32,0,0,0,12,0H9.37A.32.32,0,0,0,9,.33v2a.3.3,0,0,0,.1.24.32.32,0,0,0,.24.09Zm-5,12a.31.31,0,0,1,.33.33.38.38,0,0,1-.1.25L3.93,18.62a.33.33,0,0,1-.25.1.32.32,0,0,1-.23-.1L.1,15.28A.31.31,0,0,1,0,14.92a.31.31,0,0,1,.31-.21h2V.33A.36.36,0,0,1,2.44.09.34.34,0,0,1,2.68,0h2a.32.32,0,0,1,.24.09A.36.36,0,0,1,5,.33V14.71Zm7-6.69H9.37a.32.32,0,0,1-.24-.09A.3.3,0,0,1,9,7.69v-2a.3.3,0,0,1,.1-.24.32.32,0,0,1,.24-.09h4.68a.36.36,0,0,1,.24.09.32.32,0,0,1,.09.24v2a.32.32,0,0,1-.09.24.36.36,0,0,1-.24.09Zm4.25,10.6a.3.3,0,0,1-.24.1H9.37A.34.34,0,0,1,9,18.38v-2a.3.3,0,0,1,.1-.24.33.33,0,0,1,.24-.1h8.69a.33.33,0,0,1,.24.1.32.32,0,0,1,.09.24v2a.32.32,0,0,1-.09.24Zm-2.25-5.25H9.37A.32.32,0,0,1,9,13V11a.3.3,0,0,1,.1-.24.32.32,0,0,1,.24-.09h6.68a.32.32,0,0,1,.24.09.3.3,0,0,1,.1.24v2a.32.32,0,0,1-.34.33Z"/></g></g></svg>