<svg xmlns="http://www.w3.org/2000/svg" viewBox="0 0 96 96"><defs><style>.cls-1{fill:#21ce99;}</style></defs><title>Check icon</title><g id="Layer_2" data-name="Layer 2"><g id="Layer_1-2" data-name="Layer 1"><path class="cls-1" d="M48,0A48,48,0,1,0,96,48,48,48,0,0,0,48,0Zm0,87A39,39,0,1,1,87,48,39,39,0,0,1,48,87ZM66.86,27.58A4.18,4.18,0,0,0,61,29.2L45,58.11,36,47.2c-1.63-1.87-3.79-2.84-5.82-1.62s-2.88,4.16-1.57,6L41.08,66.81A5.23,5.23,0,0,0,44.19,69v0h.11c.26,0,4,.73,5.65-2.17L68.43,33.62a4.52,4.52,0,0,0-1.57-6Z"/></g></g></svg>