<svg xmlns="http://www.w3.org/2000/svg" viewBox="0 0 51.43 50.43"><defs><style>.cls-1{fill:#21ce99;}</style></defs><title>Collaborate icon</title><g id="Layer_2" data-name="Layer 2"><g id="Layer_1-2" data-name="Layer 1"><path class="cls-1" d="M25.71,9.35A4.68,4.68,0,1,0,21,4.68a4.68,4.68,0,0,0,4.67,4.67"/><path class="cls-1" d="M25.71,2.34a2.34,2.34,0,1,1-2.34,2.34,2.34,2.34,0,0,1,2.34-2.34"/><path class="cls-1" d="M27.35,10.11H24.08a6.37,6.37,0,0,0-6.55,6.19v1c0,.64.64,1,1.29,1H32.61c.64,0,1.28-.35,1.28-1v-.94a6.37,6.37,0,0,0-6.48-6.25h-.06"/><path class="cls-1" d="M20,16a4.11,4.11,0,0,1,4.09-3.5h3.27A4.13,4.13,0,0,1,31.44,16Z"/><path d="M5.55,28.52A20.11,20.11,0,0,1,13.09,12.8a1.16,1.16,0,0,1,1.48.16,1.17,1.17,0,0,1,0,1.65A17.85,17.85,0,0,0,7.89,28.52a1.17,1.17,0,0,1-2.34,0"/><path d="M31.41,45.4a1.16,1.16,0,0,1,1.49.71,1.22,1.22,0,0,1-.76,1.52,20,20,0,0,1-12.8,0l-.07,0a1.1,1.1,0,0,1-.63-1.43,1.16,1.16,0,0,1,1.46-.76,17.84,17.84,0,0,0,11.28,0h0"/><path d="M35.71,12.33A1.17,1.17,0,0,1,37.34,12a20.25,20.25,0,0,1,8.53,16.48,1.17,1.17,0,1,1-2.33,0A17.79,17.79,0,0,0,36,14a1.17,1.17,0,0,1-.29-1.64"/><path class="cls-1" d="M8.18,41.49a4.68,4.68,0,1,0-4.67-4.67,4.68,4.68,0,0,0,4.67,4.67"/><path class="cls-1" d="M8.18,34.48a2.34,2.34,0,1,1-2.34,2.34,2.34,2.34,0,0,1,2.34-2.34"/><path class="cls-1" d="M9.82,42.25H6.54A6.37,6.37,0,0,0,0,48.44v1c0,.64.64,1,1.28,1h13.8c.64,0,1.28-.35,1.28-1V48.5a6.37,6.37,0,0,0-6.48-6.25H9.82"/><path class="cls-1" d="M2.45,48.09a4.13,4.13,0,0,1,4.09-3.5H9.82a4.13,4.13,0,0,1,4.09,3.5Z"/><path class="cls-1" d="M38.57,36.82a4.68,4.68,0,1,0,4.67-4.68,4.67,4.67,0,0,0-4.67,4.68"/><path class="cls-1" d="M45.58,36.82a2.34,2.34,0,1,1-2.34-2.34,2.33,2.33,0,0,1,2.34,2.34"/><path class="cls-1" d="M44.88,42.25H41.61a6.38,6.38,0,0,0-6.55,6.19v1c0,.64.65,1,1.29,1H50.14c.64,0,1.29-.35,1.29-1V48.5a6.38,6.38,0,0,0-6.49-6.25h-.06"/><path class="cls-1" d="M37.52,48.09a4.12,4.12,0,0,1,4.09-3.5h3.27A4.13,4.13,0,0,1,49,48.09Z"/></g></g></svg>