<svg xmlns="http://www.w3.org/2000/svg" viewBox="0 0 39.95 51"><defs><style>.cls-1{fill:#21ce99;}</style></defs><title>Create project icon</title><g id="Layer_2" data-name="Layer 2"><g id="Layer_1-2" data-name="Layer 1"><path class="cls-1" d="M15,35.51l-4.25,3.4a.83.83,0,0,1-1.12-.06l-1.71-1.7A.85.85,0,1,1,9.1,36l1.16,1.16,3.66-2.93A.85.85,0,1,1,15,35.51"/><path class="cls-1" d="M15,26.16l-4.25,3.4A.83.83,0,0,1,9.6,29.5L7.89,27.79a.85.85,0,0,1,0-1.2.86.86,0,0,1,1.21,0l1.16,1.17,3.66-2.93A.85.85,0,1,1,15,26.16"/><path class="cls-1" d="M15,16.81l-4.25,3.4a.86.86,0,0,1-1.12-.06l-1.71-1.7A.86.86,0,1,1,9.1,17.24l1.16,1.17,3.66-2.93A.85.85,0,1,1,15,16.81"/><path class="cls-1" d="M31.45,37.39a.86.86,0,0,1-.85.86H17a.86.86,0,1,1,0-1.71H30.6a.86.86,0,0,1,.85.85"/><path class="cls-1" d="M31.45,28a.84.84,0,0,1-.85.85H17a.85.85,0,1,1,0-1.69H30.6a.84.84,0,0,1,.85.84"/><path class="cls-1" d="M31.45,18.7a.84.84,0,0,1-.85.84H17a.85.85,0,1,1,0-1.69H30.6a.84.84,0,0,1,.85.85"/><path d="M15.11,34.31a.86.86,0,0,1-.14,1.2l-4.25,3.4a.83.83,0,0,1-1.12-.06l-1.71-1.7A.85.85,0,1,1,9.1,36l1.16,1.16,3.66-2.93a.85.85,0,0,1,1.19.13"/><path d="M15.11,25a.86.86,0,0,1-.14,1.2l-4.25,3.4A.83.83,0,0,1,9.6,29.5L7.89,27.79a.85.85,0,0,1,0-1.2.86.86,0,0,1,1.21,0l1.16,1.17,3.66-2.93a.85.85,0,0,1,1.19.13"/><path d="M15.11,15.61a.86.86,0,0,1-.14,1.2l-4.25,3.4a.86.86,0,0,1-1.12-.06l-1.71-1.7A.86.86,0,1,1,9.1,17.24l1.16,1.17,3.66-2.93a.85.85,0,0,1,1.19.13"/><path d="M31.45,37.39a.86.86,0,0,1-.85.86H17a.86.86,0,1,1,0-1.71H30.6a.86.86,0,0,1,.85.85"/><path d="M31.45,28a.84.84,0,0,1-.85.85H17a.85.85,0,1,1,0-1.69H30.6a.84.84,0,0,1,.85.84"/><path d="M17,17.85H30.6a.85.85,0,1,1,0,1.69H17a.85.85,0,1,1,0-1.69"/><path d="M27.55,0H0V51H40V12.39ZM28,2.9l9,9H28ZM38.25,49.29H1.7V1.7H26.35V13.6h11.9Z"/><path d="M15.11,34.31a.86.86,0,0,1-.14,1.2l-4.25,3.4a.83.83,0,0,1-1.12-.06l-1.71-1.7A.85.85,0,1,1,9.1,36l1.16,1.16,3.66-2.93a.85.85,0,0,1,1.19.13"/><path d="M15.11,25a.86.86,0,0,1-.14,1.2l-4.25,3.4A.83.83,0,0,1,9.6,29.5L7.89,27.79a.85.85,0,0,1,0-1.2.86.86,0,0,1,1.21,0l1.16,1.17,3.66-2.93a.85.85,0,0,1,1.19.13"/><path d="M15.11,15.61a.86.86,0,0,1-.14,1.2l-4.25,3.4a.86.86,0,0,1-1.12-.06l-1.71-1.7A.86.86,0,1,1,9.1,17.24l1.16,1.17,3.66-2.93a.85.85,0,0,1,1.19.13"/><path d="M31.45,37.39a.86.86,0,0,1-.85.86H17a.86.86,0,1,1,0-1.71H30.6a.86.86,0,0,1,.85.85"/><path d="M31.45,28a.84.84,0,0,1-.85.85H17a.85.85,0,1,1,0-1.69H30.6a.84.84,0,0,1,.85.84"/><path d="M16.14,18.7a.85.85,0,0,1,.86-.85H30.6a.85.85,0,1,1,0,1.69H17a.85.85,0,0,1-.86-.84"/><path class="cls-1" d="M15,35.51l-4.25,3.4a.83.83,0,0,1-1.12-.06l-1.71-1.7A.85.85,0,1,1,9.1,36l1.16,1.16,3.66-2.93A.85.85,0,1,1,15,35.51"/><path class="cls-1" d="M15,26.16l-4.25,3.4A.83.83,0,0,1,9.6,29.5L7.89,27.79a.85.85,0,0,1,0-1.2.86.86,0,0,1,1.21,0l1.16,1.17,3.66-2.93A.85.85,0,1,1,15,26.16"/><path class="cls-1" d="M15,16.81l-4.25,3.4a.86.86,0,0,1-1.12-.06l-1.71-1.7A.86.86,0,1,1,9.1,17.24l1.16,1.17,3.66-2.93A.85.85,0,1,1,15,16.81"/><path class="cls-1" d="M31.45,37.39a.86.86,0,0,1-.85.86H17a.86.86,0,1,1,0-1.71H30.6a.86.86,0,0,1,.85.85"/><path class="cls-1" d="M31.45,28a.84.84,0,0,1-.85.85H17a.85.85,0,1,1,0-1.69H30.6a.84.84,0,0,1,.85.84"/><path class="cls-1" d="M31.45,18.7a.84.84,0,0,1-.85.84H17a.85.85,0,1,1,0-1.69H30.6a.84.84,0,0,1,.85.85"/><path class="cls-1" d="M31.45,18.7a.84.84,0,0,1-.85.84H17a.85.85,0,1,1,0-1.69H30.6a.84.84,0,0,1,.85.85"/><path class="cls-1" d="M15,16.81l-4.25,3.4a.86.86,0,0,1-1.12-.06l-1.71-1.7A.86.86,0,1,1,9.1,17.24l1.16,1.17,3.66-2.93A.85.85,0,1,1,15,16.81"/><path class="cls-1" d="M31.45,28a.84.84,0,0,1-.85.85H17a.85.85,0,1,1,0-1.69H30.6a.84.84,0,0,1,.85.84"/><path class="cls-1" d="M15,26.16l-4.25,3.4A.83.83,0,0,1,9.6,29.5L7.89,27.79a.85.85,0,0,1,0-1.2.86.86,0,0,1,1.21,0l1.16,1.17,3.66-2.93A.85.85,0,1,1,15,26.16"/><path class="cls-1" d="M31.45,37.39a.86.86,0,0,1-.85.86H17a.86.86,0,1,1,0-1.71H30.6a.86.86,0,0,1,.85.85"/><path class="cls-1" d="M15,35.51l-4.25,3.4a.83.83,0,0,1-1.12-.06l-1.71-1.7A.85.85,0,1,1,9.1,36l1.16,1.16,3.66-2.93A.85.85,0,1,1,15,35.51"/></g></g></svg>