<svg xmlns="http://www.w3.org/2000/svg" viewBox="0 0 18.39 18.72"><defs><style>.cls-1{fill:#faffff;}</style></defs><title>Descending order</title><g id="Layer_2" data-name="Layer 2"><g id="Layer_1-2" data-name="Layer 1"><path class="cls-1" d="M12,16H9.37a.33.33,0,0,0-.24.1.3.3,0,0,0-.1.24v2a.34.34,0,0,0,.34.34H12a.3.3,0,0,0,.24-.1.33.33,0,0,0,.1-.24v-2A.34.34,0,0,0,12,16ZM7,14.71a.31.31,0,0,1,.33.33.38.38,0,0,1-.1.25L3.93,18.62a.33.33,0,0,1-.25.1.32.32,0,0,1-.23-.1L.1,15.28A.31.31,0,0,1,0,14.92a.31.31,0,0,1,.31-.21h2V.33A.36.36,0,0,1,2.44.09.34.34,0,0,1,2.68,0h2a.32.32,0,0,1,.24.09A.36.36,0,0,1,5,.33V14.71Zm7-4a.36.36,0,0,1,.24.09.32.32,0,0,1,.09.24v2a.31.31,0,0,1-.33.33H9.37A.32.32,0,0,1,9,13V11a.3.3,0,0,1,.1-.24.32.32,0,0,1,.24-.09ZM18.3.09a.36.36,0,0,1,.09.24v2a.31.31,0,0,1-.33.33H9.37a.32.32,0,0,1-.24-.09A.3.3,0,0,1,9,2.34v-2A.32.32,0,0,1,9.37,0h8.69a.32.32,0,0,1,.24.09ZM16.05,5.35a.32.32,0,0,1,.24.09.3.3,0,0,1,.1.24v2a.3.3,0,0,1-.1.24.32.32,0,0,1-.24.09H9.37a.32.32,0,0,1-.24-.09A.3.3,0,0,1,9,7.69v-2a.3.3,0,0,1,.1-.24.32.32,0,0,1,.24-.09Z"/></g></g></svg>