<svg xmlns="http://www.w3.org/2000/svg" viewBox="0 0 15.5 15.42"><title>Edit icon_Simple</title><g id="Layer_2" data-name="Layer 2"><g id="Layer_1-2" data-name="Layer 1"><path d="M14.31,9.68a.38.38,0,0,0-.39.38v3.43a1.16,1.16,0,0,1-1.16,1.16H1.93A1.16,1.16,0,0,1,.77,13.49V3.43A1.16,1.16,0,0,1,1.93,2.27H5.36a.38.38,0,0,0,.38-.38.39.39,0,0,0-.38-.39H1.93A1.93,1.93,0,0,0,0,3.43V13.49a1.92,1.92,0,0,0,1.93,1.93H12.76a1.92,1.92,0,0,0,1.93-1.93V10.06a.38.38,0,0,0-.38-.38Z"/><path d="M14.54.51a1.74,1.74,0,0,0-2.46,0L5.2,7.4a.27.27,0,0,0-.1.17l-.91,3.27a.37.37,0,0,0,.1.37.38.38,0,0,0,.38.1l3.27-.91a.4.4,0,0,0,.17-.09L15,3.42A1.74,1.74,0,0,0,15,1ZM6,7.65,11.67,2l1.82,1.82L7.85,9.46Zm-.37.73L7.13,9.83l-2,.55Zm8.78-5.51L14,3.28,12.22,1.46l.41-.41a1,1,0,0,1,1.36,0l.46.46a1,1,0,0,1,0,1.36Z"/></g></g></svg>