<svg xmlns="http://www.w3.org/2000/svg" viewBox="0 0 21.03 17.81"><defs><style>.cls-1{fill:#666;}</style></defs><title>Last assignment completed icon</title><g id="Layer_2" data-name="Layer 2"><g id="Layer_1-2" data-name="Layer 1"><path class="cls-1" d="M17.55,9.78a.28.28,0,0,0-.15,0,.39.39,0,0,0-.29.13l-.81.8a.41.41,0,0,0-.11.28v3.21a2,2,0,0,1-2,2H3.64a2,2,0,0,1-1.43-.6,2,2,0,0,1-.59-1.43V3.64a2,2,0,0,1,2-2H14.17a2.2,2.2,0,0,1,.56.07l.12,0a.37.37,0,0,0,.29-.13L15.76,1a.37.37,0,0,0,.11-.36.36.36,0,0,0-.23-.29A3.44,3.44,0,0,0,14.17,0H3.64A3.51,3.51,0,0,0,1.07,1.07,3.51,3.51,0,0,0,0,3.64V14.17a3.51,3.51,0,0,0,1.07,2.57,3.51,3.51,0,0,0,2.57,1.07H14.17a3.65,3.65,0,0,0,3.64-3.64v-4a.36.36,0,0,0-.26-.36Z"/><path class="cls-1" d="M20.73,2.52,19.34,1.13a1,1,0,0,0-.72-.31,1,1,0,0,0-.72.31L9.71,9.31,6.39,6A1,1,0,0,0,4.94,6L3.55,7.37a1,1,0,0,0,0,1.45L9,14.25a1,1,0,0,0,.72.31,1,1,0,0,0,.72-.31L20.73,4a1,1,0,0,0,0-1.44Z"/></g></g></svg>