<svg xmlns="http://www.w3.org/2000/svg" viewBox="0 0 16 12.57"><defs><style>.cls-1{fill:#fff;}</style></defs><title>Messages icon</title><g id="Layer_2" data-name="Layer 2"><g id="Layer_1-2" data-name="Layer 1"><path class="cls-1" d="M1.54,3.88,3.37,5.15,5.71,6.78l.37.27.49.34L7,7.68a2.31,2.31,0,0,0,.51.24A1.59,1.59,0,0,0,8,8H8a1.59,1.59,0,0,0,.45-.08A2.31,2.31,0,0,0,9,7.68l.46-.29.48-.34.38-.27,4.18-2.91a4,4,0,0,0,1.09-1.09A2.38,2.38,0,0,0,16,1.43a1.38,1.38,0,0,0-.42-1,1.4,1.4,0,0,0-1-.42H1.43A1.28,1.28,0,0,0,.37.46,1.8,1.8,0,0,0,0,1.63,2,2,0,0,0,.49,2.84a4.48,4.48,0,0,0,1.05,1Z"/><path class="cls-1" d="M15.11,4.83q-2.94,2-4.45,3.08c-.34.25-.61.45-.83.59A4.66,4.66,0,0,1,9,8.92a2.5,2.5,0,0,1-1,.22H8a2.5,2.5,0,0,1-1-.22,5.17,5.17,0,0,1-.85-.42c-.21-.14-.48-.34-.82-.59Q4.14,7,.9,4.83A4.51,4.51,0,0,1,0,4.05v7.09a1.37,1.37,0,0,0,.42,1,1.38,1.38,0,0,0,1,.42H14.57a1.38,1.38,0,0,0,1-.42,1.37,1.37,0,0,0,.42-1V4.05a4.79,4.79,0,0,1-.89.78Z"/></g></g></svg>