<svg xmlns="http://www.w3.org/2000/svg" viewBox="0 0 105.87 26.1"><defs><style>.cls-1{fill:#21ce99;}.cls-1,.cls-2{fill-rule:evenodd;}.cls-2{fill:#10494f;}</style></defs><title>Mysnox wordmark</title><g id="Layer_2" data-name="Layer 2"><g id="Layer_1-2" data-name="Layer 1"><path id="snox" class="cls-1" d="M41.51,7c0,2.76,2,4.5,5.94,5.2,3,.53,4.56,1.26,4.56,2.16,0,1.14-.93,1.67-2.8,1.67-2.16,0-3.56-.66-3.66-2.6H41A5.36,5.36,0,0,0,43,18a8.4,8.4,0,0,0,5.54,1.57c4.66,0,8.06-1.6,8.06-5.94a4.37,4.37,0,0,0-1.23-3.13c-1-.9-2.93-1.67-5.93-2.27-2.3-.43-3.44-1.13-3.44-2s.87-1.37,2.6-1.37c1.47,0,2.37.43,2.67,1.2a1.93,1.93,0,0,0,2,1.1h2.8A5.6,5.6,0,0,0,54,2.8a8.83,8.83,0,0,0-5.4-1.5c-4,.07-7,1.87-7,5.67Zm46.83-5.4,5.4,8.6L88,19.2h5.44l3.17-5.6,3.13,5.6h5.33l-5.86-9L105.87,0h-4.06a2,2,0,0,0-1.94,1.17L96.47,6.9l-3-5.33ZM81.57,1.3c5.34,0,8,3,8,9.17s-2.7,9.13-8,9.13-8-3.06-8-9.13,2.67-9.17,8-9.17Zm-3.5,9.17c0,3.43,1.2,5.17,3.47,5.17s3.4-1.81,3.43-5.31S83.84,5.2,81.57,5.2s-3.5,1.77-3.5,5.27ZM68,7.93V17c0,1.4.73,2.1,2.2,2.2H72.5V8.83c0-5-2.43-7.53-7.46-7.53s-7.57,2.5-7.57,7.53V19.2H62V7.93C62,6.1,63,5.2,65,5.2S67.94,6.1,68,7.93Z"/><path id="my" class="cls-2" d="M4.5,8V19c0,1.4-.73,2.1-2.2,2.2H0V8.9c0-5,2.47-7.53,7.5-7.53A8.45,8.45,0,0,1,12.77,2.8,8.24,8.24,0,0,1,18,1.3c5,0,7.56,2.5,7.56,7.53V19.2H21.1V7.93c0-1.83-1-2.73-3-2.73s-3,.9-3.06,2.73V19.2H10.57V8c0-1.83-1-2.73-3-2.73S4.6,6.17,4.5,8ZM25.1,1.57l6,17.23c.7,2.34-.16,3.54-2.6,3.54H27.27V26a5.84,5.84,0,0,0,1.87.13c3.66,0,4.73-1,5.8-3.9l7-20.63H38.8a2,2,0,0,0-2.1,1.56L33.64,13.8,30.14,1.57Z"/></g></g></svg>