<svg xmlns="http://www.w3.org/2000/svg" viewBox="0 0 203.5 60.99"><defs><style>.cls-1{fill:#21ce99;}.cls-1,.cls-2,.cls-3,.cls-4,.cls-5,.cls-6,.cls-7,.cls-8,.cls-9{fill-rule:evenodd;}.cls-2{fill:#10494f;}.cls-3{fill:#fff;}.cls-4{fill:#3ee6b4;}.cls-5{fill:#15ad7f;}.cls-6{fill:#ff335b;}.cls-7{fill:#eb1e47;}.cls-8{fill:#9effe2;}.cls-9{fill:#d9fff4;}</style></defs><title>Mysnox logo</title><g id="Layer_2" data-name="Layer 2"><g id="Layer_1-2" data-name="Layer 1"><path id="snox" class="cls-1" d="M128.92,26.18c0,3.21,2.36,5.22,6.88,6,3.51.62,5.29,1.46,5.29,2.51,0,1.31-1.08,1.93-3.24,1.93-2.51,0-4.14-.77-4.25-3h-5.26a6.22,6.22,0,0,0,2.32,5.29c1.39,1.2,3.55,1.81,6.41,1.81,5.41,0,9.35-1.85,9.35-6.87A5,5,0,0,0,145,30.24c-1.12-1-3.4-1.93-6.87-2.63-2.67-.5-4-1.31-4-2.36s1-1.58,3-1.58c1.7,0,2.74.5,3.09,1.39a2.24,2.24,0,0,0,2.28,1.28h3.25a6.51,6.51,0,0,0-2.44-5,10.18,10.18,0,0,0-6.26-1.74c-4.67.08-8.15,2.17-8.15,6.57Zm54.26-6.26,6.26,10-6.65,10.47h6.3l3.67-6.49,3.63,6.49h6.18l-6.8-10.43,7.73-11.82h-4.71a2.34,2.34,0,0,0-2.24,1.35l-3.94,6.64-3.52-6.18Zm-7.84-.31c6.18,0,9.31,3.52,9.31,10.63s-3.13,10.58-9.31,10.58-9.27-3.55-9.27-10.58,3.09-10.63,9.27-10.63Zm-4.05,10.63c0,4,1.39,6,4,6s3.94-2.08,4-6.14-1.31-5.95-3.94-5.95-4.05,2.05-4.05,6.11ZM159.66,27.3V37.81c0,1.62.85,2.43,2.55,2.55h2.63v-12c0-5.83-2.82-8.73-8.66-8.73s-8.77,2.9-8.77,8.73v12h5.22V27.3c0-2.12,1.2-3.17,3.48-3.17S159.54,25.18,159.66,27.3Z"/><path id="my" class="cls-2" d="M86,27.38V40.16c0,1.62-.85,2.43-2.55,2.55H80.82V28.42c0-5.83,2.86-8.73,8.69-8.73a9.82,9.82,0,0,1,6.11,1.66,9.55,9.55,0,0,1,6.1-1.74c5.83,0,8.77,2.9,8.77,8.73v12h-5.22V27.3c0-2.12-1.19-3.17-3.47-3.17s-3.44,1.05-3.56,3.17V40.36H93.07v-13c0-2.13-1.2-3.17-3.48-3.17s-3.44,1-3.55,3.17Zm23.87-7.46,7,20c.81,2.71-.19,4.1-3,4.1h-1.43V48.2a6.63,6.63,0,0,0,2.16.15c4.25,0,5.49-1.15,6.72-4.52l8.08-23.91h-3.6a2.26,2.26,0,0,0-2.43,1.82L119.8,34.1l-4.06-14.18Z"/><path id="circle" class="cls-2" d="M29,1.72A29.14,29.14,0,0,1,49.19,7a2.62,2.62,0,0,1,5.11-.56,2.6,2.6,0,0,1-1.77,3.21l-.1,0a29.35,29.35,0,0,1-32.49,48,1.6,1.6,0,1,1-2.41-1.26A29.43,29.43,0,0,1,29,1.72ZM7.46.07A1.59,1.59,0,0,0,6.37,2a1.61,1.61,0,0,0,3.08-.92,1.59,1.59,0,0,0-2-1ZM63.25,48.21a1.58,1.58,0,1,0,2,1.06,1.59,1.59,0,0,0-2-1.06Zm.24-15.69a1.23,1.23,0,1,0,.7,2.35,1.23,1.23,0,1,0-.7-2.35Z"/><path id="dolphin_outline" data-name="dolphin outline" class="cls-2" d="M8.39,43.43A10.77,10.77,0,0,1,1.33,39.1a7.36,7.36,0,0,1-1-2.21C-.36,34.79,0,32.13,2.66,32c.2,0,.4,0,.61-.07a10.11,10.11,0,0,0,2.31-.77A28.62,28.62,0,0,1,5.8,27.8a27.3,27.3,0,0,1,.65-3.52h0c-.62-.89-1.37-1.73-2-2.59C3,19.86,1.28,17.35,2.39,15,4.61,10.2,14.48,7.42,20.68,7.12A29.63,29.63,0,0,1,38.9,5.22c9.91,2,17.47,9.26,15.82,19.8,1,1.81,1.5,3.91.42,5.83-1.52,2.68-5.38,3.49-8.7,3.41a3.85,3.85,0,0,1,.08.58,6.9,6.9,0,0,1,1.74-.09,2.77,2.77,0,0,1,2.55,1.56,3,3,0,0,1-.32,2.48c-.08.17-.15.34-.22.52a24.3,24.3,0,0,0-.83,4.09,22.17,22.17,0,0,1-1.88,6.09c-.16.32-.33.63-.51.94a19,19,0,0,1,2.81,1.28,19.52,19.52,0,0,0,2.92,1.48l.41.11c2.09.46,2.86,2,1.64,3.91A8.72,8.72,0,0,1,51.3,60a10.91,10.91,0,0,1-5.8,1A11.29,11.29,0,0,1,39,57.79c-9.28,1.26-18.79-1-25.65-7.62A25,25,0,0,1,8.39,43.43Z"/><path id="body" class="cls-1" d="M39.6,56a9.84,9.84,0,0,0,6.1,3.25c3.66.43,6.83-1.6,7.71-3,.64-1,.19-1.17-.59-1.34-2.39-.53-4.12-2.56-8.17-3.46l-.46-.09A9.42,9.42,0,0,0,46,48.75c2.26-4.67,1.6-7.94,2.94-10.7.43-.89.6-1.48-.86-1.61-2-.18-6.46,1.35-8.88,5.28a12,12,0,0,0-1.67,7.35,10.16,10.16,0,0,0,4.82,3.83,8.16,8.16,0,0,1-6-3.08c-3-3.49-4.07-10.64,1.1-12.16a8.36,8.36,0,0,1-4.6-6.8C35.1,36.32,41,38,43.8,36.75c1-.45,1.54-1.27,1.27-2.87-4.08-.4-8.7-2.28-10.84-5.14a2.76,2.76,0,0,0-2.59.7A2.52,2.52,0,0,1,33.73,28a5.64,5.64,0,0,1-.65-1.8S37,32.48,48,32.71c4.27-.13,8.24-2.21,5-7.36,1.89-10-5.2-16.59-14.39-18.48C23.65,3.81,9.35,12.43,7.47,28A26.29,26.29,0,0,0,9.55,42c2.69.09,8.24-.41,11.48-5.65-1.37,4.62-6.59,6.84-10.8,7A23.64,23.64,0,0,0,14.52,49c6.71,6.49,16.08,8.47,25.08,7ZM3.92,15.67c1.67-3.58,9.34-6,15-6.7a26.58,26.58,0,0,0-2.92,2A24.41,24.41,0,0,0,7.66,23.07C6.07,20.91,2.9,17.86,3.92,15.67Z"/><path class="cls-3" d="M33.73,28c-3.87-6.06-13.71-4-15,4.62a13.35,13.35,0,0,0,.52,5.93A11.6,11.6,0,0,0,21,36.33a8.14,8.14,0,0,1-1.52,2.85c2,5.48,7.72,10.68,18.18,11.93-3.79-2.93-6.14-11.72-.21-13.45a8.36,8.36,0,0,1-4.6-6.8C35.1,36.32,41,38,43.81,36.75c1-.45,1.53-1.28,1.26-2.87l-.21,0-.13,0h-.21l-.1,0H44.3l-.1,0-.12,0H44l-.1,0-.13,0-.1,0-.13,0-.1,0-.16,0h-.07l-.21,0h0l-.12,0-.11,0-.1,0-.14,0-.09,0-.14,0-.09,0-.14,0-.09,0-.15,0-.08,0-.19-.05h0L41,33h0L40.8,33h0l-.18-.06,0,0-.2-.07h0l-.21-.08h0c-.38-.15-.76-.3-1.14-.47h0a12.18,12.18,0,0,1-4.71-3.5,2.75,2.75,0,0,0-2.58.7A2.52,2.52,0,0,1,33.73,28Z"/><path class="cls-4" d="M35.36,9.34c9.19,1.89,16.28,8.51,14.39,18.48,1.19,1.89,1.41,3.36,1,4.48,2.92-.83,4.73-3,2.22-7,1.89-10-5.2-16.59-14.39-18.47C29.71,5,21.07,7.35,15.12,12.8A27.21,27.21,0,0,1,35.36,9.34Zm-31.27,6c1.15-2,4.12-3.59,7.49-4.73a38.1,38.1,0,0,1,5.25-1.33c.71-.13,1.42-.24,2.09-.32a26.58,26.58,0,0,0-2.92,2l-.69.56C11.2,11,5.44,13.22,4.09,15.35Z"/><path class="cls-5" d="M46,57.93a9.9,9.9,0,0,1-6.11-3.22c-9,1.43-18.37-.53-25.07-7a24.31,24.31,0,0,1-1.72-1.82,21.68,21.68,0,0,1-2-2.68c-.32,0-.64.06-.95.07a23,23,0,0,0,2.9,4.16c.44.5.9,1,1.39,1.47,6.71,6.49,16.08,8.47,25.08,7a9.84,9.84,0,0,0,6.1,3.25c3.66.43,6.83-1.6,7.71-3,.37-.57.37-.87.16-1.06A9.06,9.06,0,0,1,46,57.93ZM29.83,23.71a8.25,8.25,0,0,0-9.46,2.68c.22.35.44.69.68,1,3.47-4,9.77-4,12.68.55a4.73,4.73,0,0,1-.33-.68c0-.09-.07-.18-.1-.27a5,5,0,0,1-.19-.69,7.23,7.23,0,0,0-1.43-1.53A6.86,6.86,0,0,0,29.83,23.71Z"/><path class="cls-6" d="M13.34,47.72c9.73,5.9,12.13-1.87,20.93-1.76a.08.08,0,0,0,.07-.11c-.75-2.12,0-6,1.76-7.54a.08.08,0,0,0,0-.14c-10.85-1.8-20.86-15.64-20.16-25.89a.09.09,0,0,0-.14-.07A24.35,24.35,0,0,0,7.36,28.05,26,26,0,0,0,9.5,41.93a.09.09,0,0,0,.08,0c2.6.08,7.83-.39,11.1-5.1a.08.08,0,0,1,.14.07c-1.62,4.16-6.48,6.19-10.47,6.38a.08.08,0,0,0-.07.12,23.51,23.51,0,0,0,3,4.25Z"/><path id="hand" class="cls-1" d="M12,29.92c-3.28.84-6,3.32-9.24,3.52-2.16.13-1.17,3.48-.22,4.8A9,9,0,0,0,8,41.83a14.73,14.73,0,0,0,8.36-1.22C17.92,37.27,17.67,31.63,12,29.92Z"/><path class="cls-2" d="M16.27,11.68c0,.06-1,20.28,20.34,26.38l-.18.6-.49-.15L34.6,39.89,33,37.5C14.74,30.2,15.65,11.72,15.65,11.66l.62,0ZM25.46,35c.33,2.86,3.29,5.11,5.51,5.44.79-.25,1.1-2.74,2.18-1.36-1.09-1.89-2.12.16-2.42.38A8.81,8.81,0,0,1,25.46,35Z"/><path id="shadow" class="cls-7" d="M30.15,46.5c-5.26-.29-9.55-6.35-9.49-9.17a7.92,7.92,0,0,1-1.13,1.82,8.58,8.58,0,0,1-.88.93,13.32,13.32,0,0,1-7.47,3.18c-.32,0-.64.06-.95.07l.2.36a22.75,22.75,0,0,0,2.9,4,16.84,16.84,0,0,0,3.31,1.61c4.41,1.55,7.15-.15,10.43-1.64A21.9,21.9,0,0,1,30.15,46.5Z"/><path id="mouth" class="cls-7" d="M35.15,29.78a8.26,8.26,0,0,0,5.18,5.51c1.61.48,3.59.16,3.87-1.52A17.22,17.22,0,0,1,35.15,29.78Z"/><path class="cls-8" d="M51.63,20.5a7.49,7.49,0,0,0,0,2.63c.28,1.48,1,2.81,2.34,2.55,1-.2,1.51-1.21,1.84-2.35.7-2.41,1-5.4-.91-5.21-1,.09-2.92.9-3.27,2.38Zm-14.16-4c-5.42-.34-5.86,3.46-4.88,6.84a6.09,6.09,0,0,1,3.84,1.55,5.49,5.49,0,0,1,1.69,2.7A8.08,8.08,0,0,0,45.47,24a5.8,5.8,0,0,0,1-3.82C45.94,18,40.52,16.73,37.47,16.54Z"/><path class="cls-2" d="M32.41,23.23c6.1-7.28,11.43-1.13,8.35,2.49,1.28-4.74-3.5-5-6.06-1.45Z"/><path id="glasses" class="cls-2" d="M32.64,23.3c-.91-3.22-.46-6.81,4.68-6.49,2.93.19,8.12,1.4,8.6,3.48A5.58,5.58,0,0,1,45,23.94a7.74,7.74,0,0,1-6.88,3.49,6.11,6.11,0,0,0-5.47-4.13Zm5.7,5.31a9.63,9.63,0,0,0,5-1.08c2-1.12,3-3.19,4.12-4.66,1.45-2,2.88-2.28,3.29-.29.63,3.07,2,4,3.27,3.87,1.1-.15,2.16-1.59,2.62-4a8.92,8.92,0,0,1,.71-3,12.4,12.4,0,0,0-.13-2c-3.82-1.15-5.55,1.42-8,1.18-4.8-.34-9-6-19.5-2.64a25.18,25.18,0,0,0-.29,2.63c1.24.71,1.43,2.69,1.61,3.85,0,.26.09.51.15.77a9.68,9.68,0,0,0-1.47.22s6.94-.33,8.62,6.13a5.9,5.9,0,0,0,0-1Zm17.34-5.33c-.32,1.08-.84,2-1.74,2.23-1.23.24-1.95-1-2.22-2.42a6.94,6.94,0,0,1,0-2.49c.33-1.4,2.12-2.16,3.1-2.26C56.66,18.17,56.35,21,55.68,23.28Z"/><path id="shadow-2" data-name="shadow" class="cls-9" d="M32.34,19.87c2-4.19,15.19.18,11,5.86A7.33,7.33,0,0,0,45,23.94a5.58,5.58,0,0,0,.93-3.65c-.48-2.08-5.67-3.29-8.6-3.48C34,16.61,32.66,18,32.34,19.87Z"/></g></g></svg>