<svg xmlns="http://www.w3.org/2000/svg" viewBox="0 0 49.98 52.5"><defs><style>.cls-1{fill:#21ce99;stroke:#21ce99;stroke-miterlimit:10;}</style></defs><title>Pay securely icon</title><g id="Layer_2" data-name="Layer 2"><g id="Layer_1-2" data-name="Layer 1"><path class="cls-1" d="M49,24.49V13.12a4.94,4.94,0,0,0-4.94-4.94H40.72L37.3,2A3,3,0,0,0,34.71.5a2.89,2.89,0,0,0-1.44.37L20.12,8.18H5.44A4.94,4.94,0,0,0,.5,13.12V47.05a5,5,0,0,0,4.94,5H44.07a5,5,0,0,0,4.94-5V24.49ZM44.07,10.15A3,3,0,0,1,47,12.79H43.29l-1.47-2.64ZM34.23,2.6A1,1,0,0,1,35.57,3L41,12.79H15.9ZM47,47.05a3,3,0,0,1-3,3H5.44a3,3,0,0,1-3-3V13.12a3,3,0,0,1,3-3H16.57l-4.74,2.64H6.06a1,1,0,1,0,0,2H47Z"/><path d="M43,30.7a2.26,2.26,0,1,1-2.25-2.25A2.25,2.25,0,0,1,43,30.7"/><path d="M46,27v7.37H39.33a3.69,3.69,0,1,1,0-7.37M50,23.85H39.33a6.86,6.86,0,0,0,0,13.71H50Z"/></g></g></svg>