<svg xmlns="http://www.w3.org/2000/svg" viewBox="0 0 51.49 51.5"><defs><style>.cls-1{fill:#21ce99;}</style></defs><title>Select developer icon</title><g id="Layer_2" data-name="Layer 2"><g id="Layer_1-2" data-name="Layer 1"><path class="cls-1" d="M25.75,6.78a8.79,8.79,0,1,0,8.78,8.79,8.8,8.8,0,0,0-8.78-8.79m0,15.27a6.49,6.49,0,1,1,6.48-6.48,6.49,6.49,0,0,1-6.48,6.48"/><path d="M51.38,23.38A25.74,25.74,0,1,0,25.75,51.5c.77,0,1.55,0,2.31-.11s1.4-.16,2.13-.28l.27,0A25.64,25.64,0,0,0,51.38,23.38M40.71,43.79c-.47.38-1,.76-1.44,1.11l-.2.13c-.49.34-1,.67-1.53,1l-.2.11c-.57.33-1.1.6-1.62.84l-.19.09c-.57.26-1.14.5-1.7.7l-.16.06c-.61.22-1.21.41-1.78.56l-.15,0c-.63.17-1.26.31-1.86.41l-.11,0c-.65.11-1.3.2-1.91.26h-.09a23.67,23.67,0,0,1-4,0l0,.31,0-.31c-.63-.05-1.28-.14-1.94-.25l-.1.29v-.31c-.61-.11-1.23-.25-1.86-.41l-.15,0c-.57-.16-1.17-.35-1.77-.56l-.18-.06c-.56-.21-1.11-.44-1.69-.71L15.76,47c-.49-.23-1-.5-1.59-.83L14,46c-.49-.29-1-.61-1.51-1l-.23-.15c-.46-.33-.94-.7-1.4-1.08v-1l0-6.09a9.06,9.06,0,0,1,9-9H31.68a9.05,9.05,0,0,1,9,9Zm2.3-2.2V36.77A11.36,11.36,0,0,0,31.68,25.44H19.81A11.37,11.37,0,0,0,8.48,36.77v4.82a23.45,23.45,0,1,1,34.53,0"/><path class="cls-1" d="M25.75,6.78a8.79,8.79,0,1,0,8.78,8.79,8.8,8.8,0,0,0-8.78-8.79m0,15.27a6.49,6.49,0,1,1,6.48-6.48,6.49,6.49,0,0,1-6.48,6.48"/><path class="cls-1" d="M25.75,6.78a8.79,8.79,0,1,0,8.78,8.79,8.8,8.8,0,0,0-8.78-8.79m0,15.27a6.49,6.49,0,1,1,6.48-6.48,6.49,6.49,0,0,1-6.48,6.48"/><path class="cls-1" d="M25.75,6.78a8.79,8.79,0,1,0,8.78,8.79,8.8,8.8,0,0,0-8.78-8.79m0,15.27a6.49,6.49,0,1,1,6.48-6.48,6.49,6.49,0,0,1-6.48,6.48"/><path class="cls-1" d="M43,36.77v5.15a21,21,0,0,1-2.3,2.22V36.77a9.05,9.05,0,0,0-9-9H19.81a9.06,9.06,0,0,0-9,9l0,7.09a19.81,19.81,0,0,1-2.33-2.34V36.77A11.37,11.37,0,0,1,19.81,25.44H31.68A11.36,11.36,0,0,1,43,36.77"/></g></g></svg>