<svg xmlns="http://www.w3.org/2000/svg" xmlns:xlink="http://www.w3.org/1999/xlink" viewBox="0 0 160.22 163.84"><defs><style>.cls-1{fill:#396;}.cls-2{opacity:0.8;fill:url(#linear-gradient);}.cls-3{fill:#d7e9f7;}.cls-4{fill:#ffc60c;}.cls-5{fill:#fff;}.cls-6{fill:#60c0fd;}.cls-7{fill:#34b2e4;}.cls-8{fill:#ffdd4d;}.cls-9{fill:#8db0da;}.cls-10{fill:#f2f2f2;}.cls-11{fill:#45446c;}.cls-12{fill:#48cc93;}.cls-13{fill:#9e7456;}.cls-14{fill:#bc9371;}.cls-15{fill:#ffaa81;}.cls-16{fill:#ceab8b;}.cls-17{fill:#915151;}.cls-18{fill:#f4946e;}.cls-19{fill:#492817;}.cls-20{fill:#c4dce8;}.cls-21{fill:#d1e7f4;}.cls-22{fill:#ffc2b0;}.cls-23{fill:#2c2b57;}.cls-24{fill:#230e04;}.cls-25{fill:#a7c4e4;}.cls-26{fill:#26a587;}.cls-27{fill:#824444;}</style><linearGradient id="linear-gradient" x1="88.96" y1="111.69" x2="158.8" y2="111.69" gradientTransform="translate(247.76 223.38) rotate(-180)" gradientUnits="userSpaceOnUse"><stop offset="0" stop-color="#21ce99"/><stop offset="1" stop-color="#036"/></linearGradient></defs><title>Unmatched skill icon</title><g id="Layer_2" data-name="Layer 2"><g id="Layer_1-2" data-name="Layer 1"><rect class="cls-1" x="87.44" y="61.97" width="72.78" height="101.88" transform="translate(247.66 225.81) rotate(180)"/><rect class="cls-2" x="88.96" y="60.75" width="69.85" height="101.88" transform="translate(247.76 223.38) rotate(180)"/><path class="cls-1" d="M87.44,54.54h72.78a0,0,0,0,1,0,0V58a5.6,5.6,0,0,1-5.6,5.6H93a5.6,5.6,0,0,1-5.6-5.6V54.54a0,0,0,0,1,0,0Z" transform="translate(247.66 118.18) rotate(180)"/><path class="cls-3" d="M99.23,59.09a1.39,1.39,0,1,0,1.39-1.38A1.38,1.38,0,0,0,99.23,59.09Z"/><path class="cls-4" d="M95.18,59.09a1.39,1.39,0,1,0,1.39-1.38A1.38,1.38,0,0,0,95.18,59.09Z"/><path class="cls-5" d="M91.23,59.09a1.39,1.39,0,1,0,1.39-1.38A1.38,1.38,0,0,0,91.23,59.09Z"/><path class="cls-6" d="M151.26,133.39H96.12V124h55.14ZM96.48,133H150.9v-8.66H96.48Z"/><rect class="cls-6" x="97.23" y="125.12" width="3.86" height="7.17"/><rect class="cls-6" x="102.78" y="125.12" width="3.86" height="7.17"/><rect class="cls-6" x="108.55" y="125.12" width="3.86" height="7.17"/><rect class="cls-6" x="114.33" y="125.12" width="3.86" height="7.17"/><rect class="cls-6" x="119.88" y="125.12" width="3.86" height="7.17"/><rect class="cls-6" x="125.66" y="125.12" width="3.86" height="7.17"/><path class="cls-6" d="M119.74,72.8H96.46a.39.39,0,0,1-.36-.41.38.38,0,0,1,.36-.41h23.28a.38.38,0,0,1,.36.41A.39.39,0,0,1,119.74,72.8Z"/><path class="cls-7" d="M129.1,72.8h-6.56a.39.39,0,0,1-.36-.41.38.38,0,0,1,.36-.41h6.56a.38.38,0,0,1,.36.41A.39.39,0,0,1,129.1,72.8Z"/><path class="cls-7" d="M110.26,74.77H96.46a.38.38,0,0,1-.36-.41.39.39,0,0,1,.36-.41h13.8a.39.39,0,0,1,.36.41A.38.38,0,0,1,110.26,74.77Z"/><path class="cls-8" d="M107.82,86.38h-5.47A.39.39,0,0,1,102,86a.38.38,0,0,1,.36-.41h5.47a.38.38,0,0,1,.36.41A.39.39,0,0,1,107.82,86.38Z"/><path class="cls-7" d="M122.09,86.38H111.81a.39.39,0,0,1-.36-.41.38.38,0,0,1,.36-.41h10.28a.38.38,0,0,1,.36.41A.39.39,0,0,1,122.09,86.38Z"/><path class="cls-8" d="M114.55,104.89h-5.47a.41.41,0,0,1,0-.82h5.47a.41.41,0,0,1,0,.82Z"/><path class="cls-9" d="M128.82,104.89H118.54a.41.41,0,0,1,0-.82h10.28a.41.41,0,0,1,0,.82Z"/><path class="cls-8" d="M136.65,111.56h-5.47a.41.41,0,0,1,0-.81h5.47a.41.41,0,0,1,0,.81Z"/><path class="cls-9" d="M150.92,111.56H140.64a.41.41,0,0,1,0-.81h10.28a.41.41,0,0,1,0,.81Z"/><path class="cls-8" d="M107.82,116.61h-5.47a.39.39,0,0,1-.36-.41.38.38,0,0,1,.36-.41h5.47a.38.38,0,0,1,.36.41A.39.39,0,0,1,107.82,116.61Z"/><path class="cls-8" d="M123.33,116.61H113.05a.39.39,0,0,1-.36-.41.38.38,0,0,1,.36-.41h10.28a.39.39,0,0,1,.36.41A.4.4,0,0,1,123.33,116.61Z"/><path class="cls-8" d="M137.35,116.61H127.07a.39.39,0,0,1-.36-.41.38.38,0,0,1,.36-.41h10.28a.38.38,0,0,1,.36.41A.39.39,0,0,1,137.35,116.61Z"/><path class="cls-7" d="M139.37,91.19h-37a.41.41,0,0,1,0-.81h37a.41.41,0,0,1,0,.81Z"/><path class="cls-5" d="M125.75,76.92H96.46a.39.39,0,0,1-.36-.41.38.38,0,0,1,.36-.41h29.29a.38.38,0,0,1,.36.41A.39.39,0,0,1,125.75,76.92Z"/><path class="cls-5" d="M121.42,79.06h-25a.41.41,0,0,1,0-.81h25a.41.41,0,0,1,0,.81Z"/><path class="cls-5" d="M107.06,81.33H96.46a.39.39,0,0,1-.36-.41.38.38,0,0,1,.36-.41h10.6a.38.38,0,0,1,.36.41A.39.39,0,0,1,107.06,81.33Z"/><path class="cls-7" d="M119.74,96.42H96.46A.39.39,0,0,1,96.1,96a.38.38,0,0,1,.36-.41h23.28a.38.38,0,0,1,.36.41A.39.39,0,0,1,119.74,96.42Z"/><path class="cls-8" d="M110.26,98.39H96.46a.41.41,0,0,1,0-.82h13.8a.41.41,0,0,1,0,.82Z"/><path class="cls-9" d="M110.26,107.56H96.46a.41.41,0,0,1,0-.82h13.8a.41.41,0,0,1,0,.82Z"/><path class="cls-9" d="M125.75,100.54H96.46a.39.39,0,0,1-.36-.41.38.38,0,0,1,.36-.41h29.29a.38.38,0,0,1,.36.41A.39.39,0,0,1,125.75,100.54Z"/><path class="cls-9" d="M125.74,111.62H102.35a.38.38,0,0,1-.36-.41.39.39,0,0,1,.36-.41h23.39a.39.39,0,0,1,.36.41A.38.38,0,0,1,125.74,111.62Z"/><path class="cls-9" d="M125.74,114.36H102.35a.41.41,0,0,1,0-.81h23.39a.41.41,0,0,1,0,.81Z"/><path class="cls-9" d="M121.42,102.68h-25a.41.41,0,0,1,0-.81h25a.41.41,0,0,1,0,.81Z"/><path class="cls-9" d="M107.06,105H96.46a.39.39,0,0,1-.36-.41.38.38,0,0,1,.36-.41h10.6a.38.38,0,0,1,.36.41A.39.39,0,0,1,107.06,105Z"/><path class="cls-5" d="M144.75,76.92H130.59a.39.39,0,0,1-.35-.41.38.38,0,0,1,.35-.41h14.16a.38.38,0,0,1,.36.41A.39.39,0,0,1,144.75,76.92Z"/><path class="cls-7" d="M131.64,84.35H102.35a.39.39,0,0,1-.36-.41.38.38,0,0,1,.36-.41h29.29a.38.38,0,0,1,.36.41A.39.39,0,0,1,131.64,84.35Z"/><path class="cls-5" d="M150.47,84.35H136.32a.39.39,0,0,1-.36-.41.38.38,0,0,1,.36-.41h14.15a.38.38,0,0,1,.36.41A.39.39,0,0,1,150.47,84.35Z"/><path class="cls-8" d="M106.56,88.49h-4.21a.41.41,0,0,1,0-.81h4.21a.41.41,0,0,1,0,.81Z"/><path class="cls-7" d="M117.55,88.49h-7.91a.41.41,0,0,1,0-.81h7.91a.41.41,0,0,1,0,.81Z"/><path class="cls-8" d="M129.66,88.49h-9.08a.41.41,0,0,1,0-.81h9.08a.41.41,0,0,1,0,.81Z"/><path class="cls-10" d="M145.37,88.49h-9.09a.41.41,0,0,1,0-.81h9.09a.41.41,0,0,1,0,.81Z"/><path class="cls-11" d="M157.28,34.5a30,30,0,0,0-5.34-8.87,0,0,0,0,1,0,0c-1.17-1.85-2.31-3.69-3.05-4.73-1.71-2.41-2.67-3.22-3.73-3.21-.64,0-1.91,0-2.36,1.12-.91,2.2,5,9.71,5.91,10.64,0,0,5.72,5.76,4.53,6.93a22.1,22.1,0,0,1-5.11,2.14l.25,2.7C152.43,40.41,158.68,38.77,157.28,34.5Z"/><path class="cls-11" d="M132.58,43.73a8.57,8.57,0,0,0,.7-2.09c-1.71-1.18-10.94-3.66-9.79-7.55A21.67,21.67,0,0,1,127.2,28h0c.77-.94,1.58-1.85,1.77-2,2.28-2.19,3.53-6.23,2.47-7.81-.95-1.41-3.21-.49-5.63,3-.68,1-1.55,2.74-2.51,4.49A28.32,28.32,0,0,0,119,33.92C117.33,40.3,132.12,43.57,132.58,43.73Z"/><path class="cls-12" d="M147.76,39.18c-.62-4-2.27-16.1-2.76-17.85a6.28,6.28,0,0,1,.15-3.66c-1.07-.08-3,.32-4,.24a12.46,12.46,0,0,0-2.5-.59,10.82,10.82,0,0,0-4.43.18c-1.56,0-3.31-.65-4.72.16l.06,0c1.21.9.13,6.27,0,7-.13.95-.25,1.89-.37,2.83-1.76,6.43-2.12,22.32-1.55,22.65A22,22,0,0,0,144,52.85a6.43,6.43,0,0,0,3.65-1.8c.6-.71.25-1.65.45-2.56C148.71,45.43,148.24,42.26,147.76,39.18Z"/><path class="cls-1" d="M147.76,39.18c-.62-4-2.27-16.1-2.76-17.85a6.28,6.28,0,0,1,.15-3.66c-.86-.06-2.22.18-3.28.24a43,43,0,0,1-.5,9A39.17,39.17,0,0,1,138.82,37a18.2,18.2,0,0,1-11.42,9.86,10.78,10.78,0,0,0,.25,3.39A22,22,0,0,0,144,52.85a6.43,6.43,0,0,0,3.65-1.8c.6-.71.25-1.65.45-2.56C148.71,45.43,148.24,42.26,147.76,39.18Z"/><path class="cls-13" d="M148.46,42.63s-4.45,5.52-21.72.3l.13,10.47H149Z"/><path class="cls-14" d="M125.79,54.5a14.1,14.1,0,0,1-2.43-8.72,3.43,3.43,0,0,1,.48-1.81c.61-.89.83-1.29,1.9-1.2a11.43,11.43,0,0,1,4.51,1.4c2.34,1.62,3.63,4.56,6.19,5.79a5.77,5.77,0,0,0,6.15-.8c2.26-1.94,4.45-6.59,7.29-7.49,1.92-.62,2.81,1.6,3.34,3.55.46,1.67-.28,3.41-1,5a40.31,40.31,0,0,1-2.11,4.29Z"/><path class="cls-15" d="M144.71,78c-.21,2-.83,5.55-.43,6.31,1,1.83,2,1.07,2.49-.58.34-1.13.7-4,1-5.36A11.07,11.07,0,0,1,144.71,78Z"/><path class="cls-15" d="M126.22,78.12c.27,1.94.77,6.24,1.57,6.76,1.24.81,1.41.83,1.78-.8.17-.74-.36-5-.43-6.48A13.43,13.43,0,0,1,126.22,78.12Z"/><path class="cls-16" d="M152,41.25c-3.6-.57-3.79,4.32-4.33,8.06s-1,7.65-1.39,11.49c-.47,4.57-1,8.74-1.53,13.9-.08.8-.28,2.18-.45,3.66a14.29,14.29,0,0,0,3.79.46c.53-2.16,1-4.14,1.18-5,2.08-9,5.44-20.19,6.06-26.53C155.61,44.33,154.49,41.64,152,41.25Z"/><path class="cls-16" d="M126,78.64a17,17,0,0,0,3.48-.48c-.46-7.4-.26-15.87-.36-23.27,0-.88,0-1.8,0-2.75a16.94,16.94,0,0,0-1-6.15c-.86-2-2.12-3.59-3.85-2.28-1.32,1-1.73,3.18-1.85,5.1-.64,9.94,2.75,19.38,3.57,29.23C126,78.2,126,78.41,126,78.64Z"/><path class="cls-17" d="M142.7,85.55a9.46,9.46,0,0,1,1-3.59,3.29,3.29,0,0,1,.71-1.16,2.09,2.09,0,0,1,1.82-.28,1,1,0,0,1,.54.21c.9.89,1.12,4.88.09,5.82C146.07,87.25,142.68,86.82,142.7,85.55Z"/><path class="cls-17" d="M130.74,85.21a2.11,2.11,0,0,1,.11.71c-.06.65-.66.89-1.14,1l-2.88.46a.7.7,0,0,1-.25,0c-.3-.1-.36-.63-.36-1.06,0-1.37,0-2.75.17-4.12a2.11,2.11,0,0,1,.22-1,1.74,1.74,0,0,1,2.58-.18C129.92,81.86,130.37,84,130.74,85.21Z"/><path class="cls-11" d="M134.2,17.5s1,2.18,2.5,2.3,3.31.41,4.43-1.89A10,10,0,0,0,134.2,17.5Z"/><path class="cls-17" d="M142.1,12.66A3.58,3.58,0,0,1,141,14.33a4.87,4.87,0,0,1-3.07.52,5.62,5.62,0,0,1-3.46-1,3.65,3.65,0,0,1-1-1.68,7.76,7.76,0,0,1,.79-6.4,3.13,3.13,0,0,1,.82-.92,3.08,3.08,0,0,1,1.62-.41,6.66,6.66,0,0,1,4.05,1.27,5.77,5.77,0,0,1,2.2,3.31C143.16,10.2,142.52,11.61,142.1,12.66Z"/><path class="cls-15" d="M140,18a21,21,0,0,1-.46-4.43c-1.27,2.26-2.35.91-3.38-.77a26.84,26.84,0,0,1-1,4.88S137.4,20.45,140,18Z"/><path class="cls-18" d="M139.44,15.58a3.47,3.47,0,0,1-.45.75,2.24,2.24,0,0,1-1.35.84,2,2,0,0,1-1.69-.65l-.42-.45a16.29,16.29,0,0,0,.61-3.24c1,1.68,2.11,3,3.38.77a1.77,1.77,0,0,0,0,.69c0,.25,0,.5,0,.75A1.49,1.49,0,0,1,139.44,15.58Z"/><path class="cls-15" d="M142.22,10.81a8,8,0,0,1-1.39,3.33,3.91,3.91,0,0,1-3.1,1.63,4.14,4.14,0,0,1-3.44-2.69,11.57,11.57,0,0,1-.61-4.54,7.21,7.21,0,0,1,.76-3.79,2.87,2.87,0,0,1,1-1,3.17,3.17,0,0,1,.95-.34,5.42,5.42,0,0,1,4.14.73C142.88,5.73,142.76,8.35,142.22,10.81Z"/><path class="cls-17" d="M132.81,4.83a2.27,2.27,0,0,1-.56-1.52c0-.19.15-.43.32-.34s0,.24.07.36c.24.08.49-.11.67-.29s.45-.42.66-.64a5.47,5.47,0,0,1,.45-.51,1,1,0,0,1,.08-.11,7.72,7.72,0,0,1,.79-1,4.18,4.18,0,0,1,3.4-.72,6.06,6.06,0,0,1,2.15.52,2.63,2.63,0,0,1,1.43,1.62,2.17,2.17,0,0,1,0,.25A4.72,4.72,0,0,1,144,7.58a4.41,4.41,0,0,0-.46,1.88c-.07.37-.14.74-.19,1.11a.7.7,0,0,1-1,.12,1.05,1.05,0,0,1-.17-.8l.12-2.47a1,1,0,0,0-.05-.45,1,1,0,0,0-.31-.35,4.21,4.21,0,0,1-1.12-1.52,5.63,5.63,0,0,1-1.77,1,7.56,7.56,0,0,1-3.54.09,7.92,7.92,0,0,1-1-.24c-.15,1.14-.29,2.28-.43,3.42-.05.42-.19.93-.6,1a.73.73,0,0,1-.72-.37,2,2,0,0,1-.21-.84,12.83,12.83,0,0,1,.16-4.24Z"/><path class="cls-18" d="M141.88,11.31c.09-.64.29-1.3.34-1.94a.46.46,0,0,1,.28-.06.45.45,0,0,1,.3.07.75.75,0,0,1,.24.53,4.11,4.11,0,0,1-.15,1.94,2.09,2.09,0,0,1-1.26,1.3.28.28,0,0,1-.2,0A8.93,8.93,0,0,0,141.88,11.31Z"/><path class="cls-18" d="M132.91,9.25a.7.7,0,0,1,.3-.49.48.48,0,0,1,.31,0,1,1,0,0,1,.61.4l.06,0c0,.37-.06.75-.08,1.13a12.32,12.32,0,0,0-.05,1.92,4.68,4.68,0,0,0,.1.54.79.79,0,0,1-.27-.1,2.11,2.11,0,0,1-1.08-1.46A3.88,3.88,0,0,1,132.91,9.25Z"/><path class="cls-19" d="M126.25,86.72a5.13,5.13,0,0,0,2.09,0A4.86,4.86,0,0,0,130.4,86c.24-.32.52-.27.47,0s-.15.81-1.33,1a7.69,7.69,0,0,1-2.36.44A.68.68,0,0,1,126.25,86.72Z"/><path class="cls-19" d="M142.72,85.17a3.51,3.51,0,0,0,1.88,1.1,4,4,0,0,0,2.55-.16s-.11,1.1-2.61.71S142.72,85.17,142.72,85.17Z"/><rect class="cls-20" x="126.29" y="29.71" width="22.99" height="14.78" rx="1.41" ry="1.41"/><rect class="cls-21" x="126.8" y="30.19" width="22.11" height="13.82" rx="0.89" ry="0.89"/><path class="cls-20" d="M137.91,36.19a30.21,30.21,0,0,0-6.21,2.53,26,26,0,0,0-2.81,1.83,6.45,6.45,0,0,0-2.09,2.13v1.06a.27.27,0,0,0,.27.27h21.57a.27.27,0,0,0,.27-.27V34.35A50,50,0,0,0,137.91,36.19Z"/><path class="cls-6" d="M139.68,36.49c0,.81-1,1.47-2.18,1.47s-2.17-.66-2.17-1.47,1-1.48,2.17-1.48S139.68,35.67,139.68,36.49Z"/><path class="cls-22" d="M66.92,107.58a20.51,20.51,0,0,1,1.48,3.47c.72,2.17,2.53,7.59,6,6s5-2.76,5.26-4,.47-8-2.4-9.89S66.22,100.16,66.92,107.58Z"/><path class="cls-22" d="M81.09,113a6.07,6.07,0,0,0-1.24-1.13c-.62-.35-1.26,0-1.88.19-1.2.42-3.28,1.78-2.2,2.59,2.18,1.63,3.42,5,3.42,5A10.46,10.46,0,0,0,84,117.9S83.74,115.75,81.09,113Z"/><path class="cls-1" d="M83.34,115.9l-5,1.24a1,1,0,0,0-.61.45.65.65,0,0,0,.08.75l.14.18s-1.79,0-2.62,3-2,10.45-5.46,14.84a58.74,58.74,0,0,0-5.37,8s-.91.53-.38,2.42,7.41,11,9.15,11.78,5.24-.09,7.21-2.84a36.48,36.48,0,0,0,7.11-16.44c.38-2.17,2-18.1-1.06-20,0,0-1.43-1.9-2.34-1.82a1.62,1.62,0,0,0,.18-.77A.83.83,0,0,0,83.34,115.9Z"/><path class="cls-1" d="M86.53,119.24s-1.43-1.89-2.34-1.82a2.76,2.76,0,0,1-.44.25,6.11,6.11,0,0,1,1.42,1.91c1.67,3.5.61,8.31-.71,11.76a3.41,3.41,0,0,1-.7,1.14c0,.3-.09.61-.13.92.09-.64-.1.8-.13,1A20.85,20.85,0,0,1,81.84,140c-2.75,6.11-9.53,8.59-15.86,9.9,2.31,3.37,6.07,8,7.29,8.59,1.75.84,5.24-.09,7.21-2.84a36.48,36.48,0,0,0,7.11-16.44C88,137.06,89.56,121.13,86.53,119.24Z"/><path class="cls-22" d="M63.78,138.69c.13-.2.31-.38.25-.64-.21-.87-.84-1.38-1.33-2.62a4.77,4.77,0,0,0-1.21-1.72h0a.87.87,0,0,0-.11-.09l-.2-.11-1.62-1s-.8-.34-1-.39a33.72,33.72,0,0,0-3,1.84s-.08.74,2.28-.27c0,0,0,0,0,0a3.84,3.84,0,0,0,.05.93c0,.05.42,1.46.48,1.58A2.45,2.45,0,0,0,59,137a10.65,10.65,0,0,0,1.63,1c.19.09.46.08.63.19s.43.27.6.4a8.4,8.4,0,0,0,1.27.95.07.07,0,0,0,.06,0,.08.08,0,0,0,.05-.05Zm-5.19-5.37Z"/><path class="cls-21" d="M83.78,119.7c-3.52-.37-2.73,6.63-3.48,9.86-.89,3.79-1.41,7.53-2.78,8.7-3.11,2.67-10,.49-13.82-1.17a4.63,4.63,0,0,0-1,2.31c.53.39,1.44.81,2,1.18a32.93,32.93,0,0,0,4.12,2.16,17.33,17.33,0,0,0,4.75,1.62,9,9,0,0,0,4.77-.39,7.92,7.92,0,0,0,2-1.16c2.38-1.89,6.23-10.71,6.63-14C87.85,121.54,86.08,119.94,83.78,119.7Z"/><path class="cls-23" d="M66.24,146.7s-25.86,1.38-28.87,2S6,158.1,6,158.1l-.92,1.21,1.19,1.31s22.47-4.44,27.16-4.75,28.35,5.76,33.22,4.61S75.83,153.41,66.24,146.7Z"/><path class="cls-23" d="M66.24,146.7l-3.22.17a5,5,0,0,1-1.37.59c-5.3,1.4-10.52,3-15.73,4.72q-5.7,1.86-11.42,3.7c6.47.4,27.57,5.68,32.14,4.6C71.51,159.32,75.83,153.41,66.24,146.7Z"/><path class="cls-14" d="M5.57,161.07a.09.09,0,0,0,.08-.13q-.14-.3-.24-.57a3.5,3.5,0,0,1,0-2.66.7.7,0,0,0-.19-.19,38.12,38.12,0,0,0-2.85-6.61c-1.83-3.26-3.09-3.2-1.86,1.49,1.54,8.6,1.64,9.19,3.76,8.79A11.3,11.3,0,0,1,5.57,161.07Z"/><path class="cls-24" d="M.86,149.8A1,1,0,0,1,1,149c-1-1-1.4,0-.51,3.4a66.43,66.43,0,0,0,1.74,8.4c.33.82.61.45,1.16.48C2.53,157.46,1.64,153.65.86,149.8Z"/><path class="cls-25" d="M6,158.1c-.34,0-.69-.58-.79-.58-.87.83-.34,2.43.32,3.38a.12.12,0,0,0,.14,0,4.62,4.62,0,0,1,.6-.32C5.84,159.62,5.49,159.12,6,158.1Z"/><path class="cls-11" d="M64.63,144.07s-15.64-16-18.07-17.44-5.75-2.34-8.18,1.82-11,25.21-13.18,28.84c.48.63.83,2.11,2.66.75,2.41-3.49,10.77-16.53,12.44-18.49s3.16-5,7.41,3.82c4,8.22,11.8,17.35,18.62,17.87,8.39.65,12.52-3.5,13.28-4.56C79.83,154.18,69.46,145.09,64.63,144.07Z"/><path class="cls-14" d="M28,158a5.32,5.32,0,0,1-.74.14,3,3,0,0,1-2.4-.63c0,.13-.42.2-.42.2A37.76,37.76,0,0,0,17.37,159c-3.59,1.06-3.82,2.3,1,2.15,8.72.43,9.32.47,9.41-1.69A14.3,14.3,0,0,1,28,158Z"/><path class="cls-24" d="M15.67,160.4a1,1,0,0,1-.72-.32c-1.17.79-.34,1.41,3.26,1.23a68.77,68.77,0,0,0,8.81,0c.9-.16.56-.56.7-1.1C23.7,160.3,19.71,160.42,15.67,160.4Z"/><path class="cls-25" d="M25.2,157.29c-.26.29-.74.34-.75.43.62,1.06,2.34,1.13,3.43.69,0-.12.26-.64.28-.76A3.4,3.4,0,0,1,25.2,157.29Z"/><path class="cls-26" d="M60.44,139.51h0a.57.57,0,0,1-.8,0L47.45,127.32a.57.57,0,0,1,0-.8h0a.58.58,0,0,1,.81,0L60.44,138.7A.58.58,0,0,1,60.44,139.51Z"/><path class="cls-27" d="M82.76,105.88a4.14,4.14,0,0,0-.43-2.41,2,2,0,0,0-2.09-1A4.76,4.76,0,0,0,78.43,99a3.32,3.32,0,0,0-3.75-.15c0-.44-.44-.73-.85-.9a6.31,6.31,0,0,0-4.37-.4,2.06,2.06,0,0,0-1,.64,1,1,0,0,0-.08,1.11,1.73,1.73,0,0,0-.77-.23,3.35,3.35,0,0,0-2.33.43,1.7,1.7,0,0,0-.61,2.12A2.15,2.15,0,0,0,63,103.26a2.42,2.42,0,0,0,.56,1.93c.4.61.13,1.36.44,2a1.82,1.82,0,0,0,1.57,1.11,1.26,1.26,0,0,0,1.26-1.29,1.6,1.6,0,0,0,1.47.19,1.62,1.62,0,0,0,1-1.12,3.75,3.75,0,0,0,3.63.85,1.09,1.09,0,0,0,.75,1.06,1.8,1.8,0,0,0,.22.06l.12.3c.2.49.39,1.33,1,1.36a.73.73,0,0,0,.38-.11,1.28,1.28,0,0,1,.35-.62.8.8,0,0,1,.27-.18l.06,0h0l.1,0a2.07,2.07,0,0,0,0,.5,1.42,1.42,0,0,0,1,1.2,3.37,3.37,0,0,0,.72,2,2.16,2.16,0,0,0,2,.76,2.84,2.84,0,0,0,2-2.46,1.9,1.9,0,0,0-.53-1.92A3.85,3.85,0,0,0,82.76,105.88Z"/></g></g></svg>