<svg xmlns="http://www.w3.org/2000/svg" viewBox="0 0 19 15.17"><defs><style>.cls-1{fill:#fff;}.cls-2{fill:#eb1e47;}</style></defs><title>Unread messages icon</title><g id="Layer_2" data-name="Layer 2"><g id="Layer_1-2" data-name="Layer 1"><path class="cls-1" d="M1.54,6.47c.2.15.81.57,1.83,1.28L5.71,9.38l.37.27.49.34.46.29a3.82,3.82,0,0,0,.51.24A1.59,1.59,0,0,0,8,10.6H8a1.59,1.59,0,0,0,.45-.08A3.82,3.82,0,0,0,9,10.28L9.43,10l.48-.34.38-.27,4.18-2.91a4.18,4.18,0,0,0,1.09-1.09A2.38,2.38,0,0,0,16,4a1.37,1.37,0,0,0-.42-1,1.4,1.4,0,0,0-1-.42H1.43a1.28,1.28,0,0,0-1.06.46A1.79,1.79,0,0,0,0,4.22,2,2,0,0,0,.49,5.44a4.42,4.42,0,0,0,1.05,1Z"/><path class="cls-1" d="M15.11,7.43q-2.94,2-4.45,3.08c-.34.25-.61.44-.83.58a4.62,4.62,0,0,1-.84.43,2.5,2.5,0,0,1-1,.22H8a2.5,2.5,0,0,1-1-.22,5.12,5.12,0,0,1-.85-.43l-.82-.58Q4.14,9.63.9,7.43A4.86,4.86,0,0,1,0,6.65v7.09a1.38,1.38,0,0,0,.42,1,1.38,1.38,0,0,0,1,.42H14.57A1.43,1.43,0,0,0,16,13.74V6.65a4.79,4.79,0,0,1-.89.78Z"/><circle class="cls-2" cx="15.5" cy="3.5" r="3.5"/></g></g></svg>